<?xml version="1.0" standalone="no"?>
<!DOCTYPE svg PUBLIC "-//W3C//DTD SVG 20010904//EN"
 "http://www.w3.org/TR/2001/REC-SVG-20010904/DTD/svg10.dtd">
<svg version="1.0" xmlns="http://www.w3.org/2000/svg"
 width="1500.000000pt" height="1500.000000pt" viewBox="0 0 1500.000000 1500.000000"
 preserveAspectRatio="xMidYMid meet">

<g transform="translate(0.000000,1500.000000) scale(0.100000,-0.100000)"
fill="#000000" stroke="none">
<path d="M0 7500 l0 -7500 7500 0 7500 0 0 7500 0 7500 -7500 0 -7500 0 0
-7500z m10195 3890 c440 -343 815 -637 833 -653 l32 -31 0 -1363 0 -1363 -140
0 -140 0 0 1338 0 1338 -697 544 c-384 299 -702 543 -708 543 -6 0 -348 -263
-760 -584 -412 -321 -753 -585 -757 -585 -5 -1 -791 -2 -1748 -3 l-1740 -1 0
-1305 0 -1305 -150 0 -150 0 0 1425 0 1425 1873 0 1872 1 696 542 c382 298
733 572 780 608 46 37 88 63 94 59 6 -4 370 -288 810 -630z m-4695 -1910 l0
-470 -275 0 -275 0 0 470 0 470 275 0 275 0 0 -470z m1510 0 l0 -470 -275 0
-275 0 0 470 0 470 275 0 275 0 0 -470z m2640 0 l0 -470 -275 0 -275 0 0 470
0 470 275 0 275 0 0 -470z m1840 -1840 l0 -140 -3965 0 -3965 0 0 140 0 140
3965 0 3965 0 0 -140z m-6986 -1015 c170 -30 301 -99 409 -216 115 -124 169
-269 168 -454 0 -188 -62 -337 -195 -470 -91 -93 -174 -140 -311 -177 -116
-31 -384 -31 -498 0 -229 63 -400 219 -474 434 -33 97 -42 260 -19 367 44 208
192 385 391 468 44 18 146 44 225 56 62 10 225 6 304 -8z m6170 0 c170 -30
301 -99 409 -216 115 -124 169 -269 168 -454 0 -188 -62 -337 -195 -470 -91
-93 -174 -140 -311 -177 -116 -31 -384 -31 -498 0 -229 63 -400 219 -474 434
-33 97 -42 260 -19 367 44 208 192 385 391 468 44 18 146 44 225 56 62 10 225
6 304 -8z m1702 4 c104 -14 193 -48 352 -131 125 -66 134 -69 156 -55 14 9 28
12 36 7 11 -7 -7 -40 -76 -144 -92 -141 -116 -160 -122 -99 -4 44 -48 84 -146
132 -102 52 -176 71 -296 78 -172 9 -307 -34 -411 -133 -183 -176 -183 -472 0
-648 105 -100 239 -142 416 -133 114 7 208 32 308 85 90 46 127 82 127 120 0
61 27 45 96 -56 37 -53 78 -112 92 -130 29 -40 19 -57 -24 -40 -29 10 -38 7
-120 -38 -227 -124 -311 -152 -489 -161 -404 -20 -693 145 -802 459 -35 99
-43 262 -19 372 51 227 223 411 451 482 138 43 314 55 471 33z m-10868 -19
c151 -25 254 -96 308 -212 26 -57 29 -73 29 -173 0 -100 -3 -116 -29 -173 -37
-79 -114 -152 -192 -181 -89 -34 -170 -41 -476 -41 l-288 0 0 -227 c0 -126 4
-233 8 -239 4 -6 17 -16 30 -23 12 -6 22 -18 22 -26 0 -13 -32 -15 -205 -15
-173 0 -205 2 -205 15 0 8 10 20 23 26 12 7 25 17 29 23 10 14 10 1178 0 1192
-4 6 -17 16 -29 23 -13 6 -23 18 -23 26 0 13 64 15 468 15 269 0 494 -4 530
-10z m1528 -1 c118 -16 179 -43 245 -108 78 -77 102 -142 103 -276 0 -89 -3
-107 -28 -163 -48 -103 -126 -161 -277 -204 l-46 -13 141 -201 c178 -253 208
-290 251 -305 19 -7 35 -19 35 -26 0 -10 -50 -13 -240 -13 -194 0 -240 3 -240
13 0 8 11 19 25 25 14 6 25 20 25 30 0 11 -69 120 -154 243 l-153 224 -177 3
-176 2 0 -232 c0 -128 4 -238 8 -244 4 -6 17 -16 30 -23 12 -6 22 -18 22 -26
0 -13 -32 -15 -205 -15 -173 0 -205 2 -205 15 0 8 10 20 23 26 12 7 25 17 29
23 4 6 8 274 8 596 0 322 -4 590 -8 596 -4 6 -17 16 -29 23 -13 6 -23 18 -23
26 0 13 64 15 469 15 281 0 501 -4 547 -11z m3252 1 c151 -25 254 -96 308
-212 26 -57 29 -73 29 -173 0 -100 -3 -116 -29 -173 -37 -79 -114 -152 -192
-181 -89 -34 -170 -41 -476 -41 l-288 0 0 -227 c0 -126 4 -233 8 -239 4 -6 17
-16 30 -23 12 -6 22 -18 22 -26 0 -13 -32 -15 -205 -15 -173 0 -205 2 -205 15
0 8 10 20 23 26 12 7 25 17 29 23 4 6 8 274 8 596 0 322 -4 590 -8 596 -4 6
-17 16 -29 23 -13 6 -23 18 -23 26 0 13 64 15 468 15 269 0 494 -4 530 -10z
m1562 -1 c126 -20 220 -81 267 -173 22 -41 28 -69 31 -143 4 -81 2 -97 -20
-145 -27 -58 -73 -110 -121 -135 l-31 -16 47 -24 c131 -66 197 -206 168 -359
-27 -150 -116 -244 -275 -292 -77 -24 -1116 -31 -1116 -8 0 8 10 21 23 27 12
7 25 17 29 23 4 6 8 274 8 596 0 322 -4 590 -8 596 -4 6 -17 16 -29 23 -13 6
-23 18 -23 26 0 13 67 15 493 15 293 0 518 -4 557 -11z m960 -4 c0 -9 -11 -20
-24 -24 -13 -5 -26 -17 -30 -26 -3 -9 -6 -246 -6 -526 l0 -509 418 0 c229 0
422 4 428 8 6 4 16 17 23 30 6 12 18 22 26 22 13 0 15 -27 15 -170 0 -143 -2
-170 -15 -170 -8 0 -20 10 -26 23 -7 12 -17 25 -23 29 -6 4 -278 8 -603 8
-514 0 -593 2 -593 15 0 8 10 20 23 26 12 7 25 17 29 23 4 6 8 274 8 596 0
322 -4 590 -8 596 -4 6 -17 16 -29 23 -13 6 -23 18 -23 26 0 13 32 15 205 15
177 0 205 -2 205 -15z m4710 0 c0 -9 -11 -20 -25 -25 -13 -5 -27 -20 -30 -32
-3 -13 -4 -127 -3 -254 l3 -231 280 230 c154 126 284 235 288 243 10 18 -6 40
-34 49 -10 4 -19 13 -19 21 0 12 42 14 270 14 235 0 270 -2 270 -15 0 -9 -12
-20 -27 -26 -15 -5 -63 -40 -107 -76 -45 -36 -179 -145 -298 -241 -120 -96
-216 -178 -213 -183 18 -27 516 -624 562 -671 30 -31 70 -62 89 -68 19 -6 34
-18 34 -26 0 -12 -42 -14 -260 -14 -211 0 -260 3 -260 13 0 8 12 19 26 25 18
9 24 19 22 33 -3 21 -416 537 -430 538 -4 1 -50 -34 -103 -76 l-95 -77 0 -191
c0 -104 4 -195 8 -201 4 -6 17 -16 30 -23 12 -6 22 -18 22 -26 0 -13 -32 -15
-205 -15 -173 0 -205 2 -205 15 0 8 10 20 23 26 12 7 25 17 29 23 4 6 8 274 8
596 0 322 -4 590 -8 596 -4 6 -17 16 -29 23 -13 6 -23 18 -23 26 0 13 32 15
205 15 177 0 205 -2 205 -15z m-8600 -2049 c0 -71 -11 -104 -24 -71 -4 13 -37
15 -206 15 l-200 0 0 -70 0 -70 127 0 c104 0 130 3 145 17 17 15 18 13 18 -67
0 -80 -1 -82 -18 -67 -15 14 -41 17 -146 17 l-127 0 3 -77 3 -78 197 -3 c165
-2 199 0 211 13 9 8 18 15 21 15 3 0 6 -36 6 -80 0 -74 -10 -101 -24 -65 -5
13 -46 15 -291 15 -257 0 -318 5 -270 24 13 5 15 44 15 272 0 235 -2 270 -17
286 -16 17 -7 18 259 18 233 0 277 2 288 15 23 28 30 15 30 -59z m6650 0 c0
-71 -11 -104 -24 -71 -4 13 -37 15 -206 15 l-200 0 0 -70 0 -70 127 0 c104 0
130 3 145 17 17 15 18 13 18 -67 0 -80 -1 -82 -18 -67 -15 14 -41 17 -146 17
l-127 0 3 -77 3 -78 196 -3 c166 -2 198 0 209 13 24 28 30 15 30 -65 0 -74
-10 -101 -24 -65 -5 13 -46 15 -291 15 -257 0 -318 5 -270 24 13 5 15 44 15
272 0 235 -2 270 -17 286 -16 17 -7 18 259 18 233 0 277 2 288 15 23 28 30 15
30 -59z m-9400 22 c81 -41 112 -144 70 -236 -17 -36 -29 -47 -80 -71 l-61 -27
77 -107 c42 -59 85 -109 95 -112 47 -15 10 -25 -91 -25 -101 0 -134 9 -94 24
12 5 1 27 -57 111 l-72 105 -84 0 -83 0 0 -99 c0 -75 4 -101 15 -111 29 -24
14 -30 -80 -30 -87 0 -118 9 -80 24 13 5 15 44 15 272 0 235 -2 270 -17 286
-16 17 -8 18 233 18 239 0 252 -1 294 -22z m6078 2 c-11 -18 -4 -38 61 -163
41 -78 80 -150 86 -160 11 -16 23 1 99 138 47 86 86 162 86 169 0 6 -5 17 -12
24 -9 9 14 12 107 12 114 0 117 -1 102 -18 -15 -16 -17 -51 -17 -286 0 -228 2
-267 15 -272 38 -15 7 -24 -80 -24 -52 0 -95 3 -95 6 0 4 7 12 15 18 13 9 15
40 13 196 l-3 185 -115 -202 c-63 -111 -115 -201 -116 -200 -1 1 -48 88 -104
192 -56 105 -106 194 -111 200 -5 5 -9 -65 -9 -172 0 -148 3 -183 15 -193 29
-24 14 -30 -75 -30 -83 0 -112 9 -75 24 13 5 15 45 15 277 0 247 -2 273 -17
285 -15 11 0 13 105 14 120 0 122 0 110 -20z m-5388 -136 c0 -35 -3 -64 -6
-64 -3 0 -12 7 -21 15 -12 13 -41 15 -166 13 l-152 -3 -3 -57 -3 -58 97 0 c77
0 101 4 116 17 17 15 18 13 18 -57 0 -70 -1 -72 -18 -57 -15 13 -39 17 -115
17 l-97 0 0 -60 0 -60 170 0 c107 0 170 4 170 10 0 6 5 10 10 10 6 0 10 -30
10 -70 0 -65 -10 -90 -24 -55 -5 13 -41 15 -246 15 -216 0 -271 6 -225 24 13
4 15 38 15 217 0 184 -2 215 -17 231 -16 17 -8 18 221 18 201 0 237 2 242 15
12 31 24 1 24 -61z m2936 46 c190 0 226 2 230 15 12 31 24 1 24 -61 0 -65 -7
-76 -30 -49 -10 12 -30 15 -89 13 l-76 -3 -3 -181 c-2 -152 0 -183 13 -194 29
-24 15 -30 -70 -30 -47 0 -85 2 -85 5 0 3 7 16 15 29 13 19 15 55 13 197 l-3
174 -76 3 c-59 2 -80 -1 -92 -13 -9 -8 -18 -15 -21 -15 -9 0 -7 125 1 134 4 3
11 0 15 -9 8 -13 43 -15 234 -15z m1094 0 c185 0 216 2 232 17 17 15 18 13 18
-55 0 -40 -3 -72 -6 -72 -3 0 -12 7 -21 15 -11 12 -33 15 -87 13 l-71 -3 -3
-188 c-2 -160 0 -188 13 -193 37 -15 8 -24 -75 -24 -83 0 -112 9 -75 24 13 4
15 36 15 196 l0 190 -73 0 c-49 0 -80 -5 -95 -16 l-22 -15 0 72 c0 69 1 71 18
56 16 -15 47 -17 232 -17z m800 -42 c0 -68 -1 -70 -18 -55 -16 14 -43 17 -170
17 l-152 0 0 -60 0 -60 97 0 c76 0 100 4 115 17 17 15 18 13 18 -57 0 -70 -1
-72 -18 -57 -15 13 -39 17 -115 17 l-97 0 0 -60 0 -60 170 0 c107 0 170 4 170
10 0 6 5 10 10 10 6 0 10 -30 10 -70 0 -65 -10 -90 -24 -55 -5 13 -41 15 -246
15 -216 0 -271 6 -225 24 13 4 15 39 15 221 0 182 -2 217 -15 221 -46 18 8 24
215 24 188 0 231 3 242 15 7 8 14 14 16 15 1 0 2 -32 2 -72z m2960 0 c0 -68
-1 -70 -18 -55 -16 14 -43 17 -170 17 l-152 0 0 -60 0 -60 94 0 c71 0 98 4
110 15 8 8 17 15 20 15 3 0 6 -32 6 -72 0 -68 -1 -70 -18 -55 -15 13 -39 17
-115 17 l-97 0 0 -60 0 -60 164 0 c99 0 167 4 171 10 16 26 25 4 25 -60 0 -65
-10 -90 -24 -55 -5 13 -41 15 -246 15 -216 0 -271 6 -225 24 13 4 15 39 15
221 0 182 -2 217 -15 221 -46 18 8 24 214 24 191 0 231 2 241 15 7 8 14 15 16
15 2 0 4 -32 4 -72z m-5275 26 c39 -14 80 -27 93 -27 28 -2 28 -7 -4 -68 l-25
-51 -22 20 c-36 34 -97 54 -166 55 -76 1 -131 -22 -131 -53 0 -29 25 -37 149
-49 175 -16 231 -53 231 -151 0 -62 -22 -95 -84 -125 -77 -38 -177 -43 -276
-15 -41 11 -87 24 -102 27 -16 3 -28 7 -28 10 0 5 42 106 47 112 2 3 10 -5 19
-17 47 -67 314 -69 314 -2 0 28 -26 36 -153 49 -154 15 -200 40 -217 116 -18
79 24 146 110 175 78 27 160 25 245 -6z m7280 0 c39 -15 80 -27 93 -28 28 -1
28 -6 -3 -66 -26 -52 -39 -61 -49 -34 -3 8 -27 24 -52 35 -91 41 -244 21 -244
-31 0 -29 25 -37 149 -49 173 -16 231 -54 231 -151 0 -59 -26 -97 -86 -126
-75 -37 -176 -42 -274 -14 -41 11 -87 24 -102 27 -16 3 -28 7 -28 9 0 6 42
109 46 113 2 3 11 -5 20 -17 44 -63 290 -71 310 -10 10 31 -8 40 -103 50 -197
22 -243 43 -263 118 -41 153 154 248 355 174z m-9355 7 c0 -6 -4 -13 -10 -16
-5 -3 -10 -13 -10 -22 0 -24 211 -403 231 -416 35 -22 19 -27 -81 -27 -55 0
-100 3 -100 7 0 3 7 14 15 22 12 15 12 22 -7 59 l-22 42 -113 0 -113 0 -20
-39 c-19 -38 -18 -71 1 -71 5 0 9 -4 9 -10 0 -6 -37 -10 -90 -10 -49 0 -90 3
-90 6 0 3 8 13 19 22 10 10 62 101 115 204 88 173 112 238 86 238 -5 0 -10 5
-10 10 0 6 38 10 95 10 53 0 95 -4 95 -9z m447 -9 c-15 -16 -17 -45 -17 -200
l0 -182 150 0 c93 0 150 4 150 10 0 6 5 10 10 10 6 0 10 -30 10 -70 0 -65 -10
-90 -24 -55 -4 13 -39 15 -226 15 -121 0 -220 4 -220 9 0 5 7 14 15 21 12 10
15 48 15 222 0 176 -2 210 -15 214 -37 15 -8 24 77 24 88 0 90 -1 75 -18z
m2663 12 c0 -3 -7 -12 -15 -20 -8 -8 -11 -22 -8 -32 14 -38 208 -387 225 -404
10 -10 18 -20 18 -23 0 -3 -45 -5 -100 -5 -91 0 -123 9 -85 24 21 8 19 33 -6
72 l-21 34 -112 0 -112 0 -17 -35 c-21 -44 -21 -64 -2 -71 38 -15 7 -24 -82
-24 -94 1 -97 1 -78 18 22 18 225 400 225 423 0 7 -7 21 -17 31 -15 17 -12 18
85 18 56 0 102 -3 102 -6z m2836 -13 c-11 -12 -15 -27 -12 -39 14 -42 207
-388 226 -404 11 -9 20 -19 20 -22 0 -3 -45 -6 -100 -6 -60 0 -100 4 -100 10
0 6 4 10 9 10 20 0 20 34 -1 71 l-22 39 -112 0 -112 0 -21 -42 c-18 -37 -19
-44 -6 -58 8 -9 15 -20 15 -23 0 -4 -40 -7 -90 -7 -91 0 -105 6 -71 27 10 6
64 102 119 212 92 182 109 231 81 231 -5 0 -9 5 -9 10 0 6 41 10 102 10 99 0
101 0 84 -19z m681 7 c59 -14 127 -78 142 -133 14 -53 14 -148 -1 -198 -7 -22
-28 -57 -48 -78 -54 -57 -109 -69 -322 -69 -160 0 -207 7 -163 24 13 4 15 39
15 221 0 182 -2 217 -15 221 -8 4 -15 10 -15 15 0 13 353 11 407 -3z m2093 3
c0 -6 -4 -13 -10 -16 -5 -3 -10 -13 -10 -22 0 -24 211 -403 231 -416 35 -22
19 -27 -81 -27 -55 0 -100 3 -100 7 0 3 7 14 15 22 12 15 12 22 -7 59 l-22 42
-113 0 -113 0 -20 -39 c-19 -38 -18 -71 1 -71 5 0 9 -4 9 -10 0 -6 -37 -10
-90 -10 -82 0 -112 9 -76 23 7 3 59 94 115 201 93 181 117 246 91 246 -5 0
-10 5 -10 10 0 6 38 10 95 10 53 0 95 -4 95 -9z m1010 3 c0 -4 -8 -12 -17 -19
-16 -12 -15 -16 10 -51 15 -22 37 -52 49 -67 l23 -28 43 60 c23 33 42 63 42
67 0 4 -7 16 -17 26 -15 17 -12 18 95 18 101 0 142 -10 93 -23 -10 -2 -59 -58
-109 -123 l-92 -119 0 -98 c0 -78 3 -99 15 -103 37 -15 8 -24 -75 -24 -49 0
-90 3 -90 6 0 3 7 12 15 20 11 11 15 39 15 103 l0 88 -81 106 c-44 59 -93 117
-110 131 -16 14 -29 27 -29 30 0 3 50 6 110 6 61 0 110 -3 110 -6z"/>
<path d="M4210 6406 c-85 -18 -149 -54 -216 -120 -73 -73 -110 -147 -126 -250
-24 -155 20 -296 126 -402 117 -117 281 -160 455 -119 88 21 151 58 215 125
86 90 126 191 126 320 0 308 -268 514 -580 446z"/>
<path d="M10380 6406 c-85 -18 -149 -54 -216 -120 -73 -73 -110 -147 -126
-250 -24 -155 20 -296 126 -402 117 -117 281 -160 455 -119 88 21 151 58 215
125 86 90 126 191 126 320 0 308 -268 514 -580 446z"/>
<path d="M860 6225 l0 -177 288 4 c323 3 341 7 384 77 32 50 32 142 0 192 -43
70 -61 74 -384 77 l-288 4 0 -177z"/>
<path d="M2370 6230 l0 -171 303 3 c279 3 305 5 341 23 63 32 81 65 81 145 0
80 -18 113 -81 145 -36 18 -62 20 -341 23 l-303 3 0 -171z"/>
<path d="M5640 6225 l0 -177 288 4 c255 3 291 5 324 22 55 27 83 78 83 151 0
73 -28 124 -83 151 -33 17 -69 19 -324 22 l-288 4 0 -177z"/>
<path d="M7150 6250 l0 -151 308 3 c271 3 311 5 339 21 42 22 65 68 65 127 0
65 -19 101 -67 125 -37 18 -64 20 -342 23 l-303 3 0 -151z"/>
<path d="M7150 5700 l0 -182 308 4 c305 3 308 3 356 28 61 32 86 75 86 150 0
75 -25 118 -86 150 -48 25 -51 25 -356 28 l-308 4 0 -182z"/>
<path d="M1790 4426 l0 -76 149 0 150 0 21 27 c16 20 20 36 16 58 -12 56 -23
60 -186 63 l-150 3 0 -75z"/>
<path d="M3162 4275 c-18 -36 -32 -68 -32 -70 0 -3 32 -5 70 -5 39 0 70 2 70
5 0 10 -65 135 -70 135 -3 0 -20 -29 -38 -65z"/>
<path d="M6265 4270 l-35 -70 75 0 75 0 -35 70 c-19 39 -37 70 -40 70 -3 0
-21 -31 -40 -70z"/>
<path d="M9116 4271 l-36 -71 74 0 74 0 -36 68 c-19 37 -36 69 -38 71 -1 1
-19 -29 -38 -68z"/>
<path d="M9670 4251 l0 -161 93 0 c152 0 202 43 195 167 -7 111 -49 143 -195
151 l-93 5 0 -162z"/>
<path d="M11882 4275 c-18 -36 -32 -68 -32 -70 0 -3 32 -5 70 -5 39 0 70 2 70
5 0 10 -65 135 -70 135 -3 0 -20 -29 -38 -65z"/>
</g>
</svg>
