<?xml version="1.0" standalone="no"?>
<!DOCTYPE svg PUBLIC "-//W3C//DTD SVG 20010904//EN"
 "http://www.w3.org/TR/2001/REC-SVG-20010904/DTD/svg10.dtd">
<svg version="1.0" xmlns="http://www.w3.org/2000/svg"
 width="1500.000000pt" height="1500.000000pt" viewBox="0 0 1500.000000 1500.000000"
 preserveAspectRatio="xMidYMid meet">

<g transform="translate(0.000000,1500.000000) scale(0.100000,-0.100000)"
fill="#fff" stroke="none">
<path d="M9291 11961 c-47 -36 -398 -310 -780 -608 l-696 -542 -1872 -1 -1873
0 0 -1425 0 -1425 150 0 150 0 0 1305 0 1305 1740 1 c957 1 1743 2 1748 3 4 0
345 264 757 585 412 321 754 584 760 584 6 0 324 -244 708 -543 l697 -544 0
-1338 0 -1338 140 0 140 0 0 1364 0 1364 -52 45 c-38 31 -1523 1192 -1623
1267 -5 4 -48 -22 -94 -59z"/>
<path d="M4950 9480 l0 -470 275 0 275 0 0 470 0 470 -275 0 -275 0 0 -470z"/>
<path d="M6460 9480 l0 -470 275 0 275 0 0 470 0 470 -275 0 -275 0 0 -470z"/>
<path d="M9100 9480 l0 -470 275 0 275 0 0 470 0 470 -275 0 -275 0 0 -470z"/>
<path d="M3560 7640 l0 -140 3965 0 3965 0 0 140 0 140 -3965 0 -3965 0 0
-140z"/>
<path d="M4120 6626 c-159 -34 -265 -89 -365 -190 -79 -80 -142 -189 -171
-296 -23 -88 -24 -263 -1 -350 69 -260 262 -439 531 -495 144 -29 381 -19 511
22 391 123 576 572 393 952 -57 120 -170 232 -289 289 -131 63 -181 74 -374
78 -118 2 -190 -1 -235 -10z m394 -249 c160 -74 241 -183 266 -358 19 -134
-32 -287 -126 -382 -99 -98 -191 -131 -353 -125 -94 3 -114 7 -174 35 -164 77
-257 227 -257 413 0 206 111 363 305 433 40 14 74 17 165 14 99 -3 123 -7 174
-30z"/>
<path d="M10290 6626 c-159 -34 -265 -89 -365 -190 -79 -80 -142 -189 -171
-296 -23 -88 -24 -263 -1 -350 70 -262 262 -440 536 -495 106 -22 373 -16 466
9 419 114 624 570 433 965 -57 120 -170 232 -289 289 -131 63 -181 74 -374 78
-118 2 -190 -1 -235 -10z m394 -249 c160 -74 241 -183 266 -358 19 -134 -32
-287 -126 -382 -99 -98 -191 -131 -353 -125 -94 3 -114 7 -174 35 -164 77
-257 227 -257 413 0 206 111 363 305 433 40 14 74 17 165 14 99 -3 123 -7 174
-30z"/>
<path d="M12030 6634 c-337 -64 -548 -271 -591 -581 -20 -140 1 -261 66 -399
89 -185 261 -311 488 -358 49 -10 128 -16 224 -16 222 0 312 27 572 170 71 39
75 40 98 24 22 -14 27 -14 39 -2 12 11 1 32 -70 136 -108 158 -106 155 -122
141 -8 -6 -14 -23 -14 -37 0 -55 -143 -143 -295 -182 -96 -24 -254 -27 -338
-5 -119 31 -236 115 -291 209 -55 95 -72 247 -40 357 44 147 169 262 331 304
120 31 314 15 436 -37 129 -54 188 -106 199 -173 8 -47 35 -22 123 111 50 75
91 140 93 144 6 15 -37 21 -57 8 -18 -11 -38 -3 -168 64 -218 112 -249 121
-473 124 -102 1 -196 0 -210 -2z"/>
<path d="M500 6602 c0 -10 12 -22 28 -28 21 -8 31 -20 35 -44 11 -53 8 -1126
-3 -1154 -5 -14 -20 -28 -35 -32 -18 -4 -25 -13 -25 -30 l0 -24 215 0 215 0 0
24 c0 17 -7 26 -25 30 -15 4 -30 18 -35 32 -6 14 -10 119 -10 233 l0 208 318
6 c339 7 397 14 491 61 63 33 134 113 162 184 32 81 32 233 0 314 -45 116
-155 202 -291 228 -31 6 -260 10 -546 10 -467 0 -494 -1 -494 -18z m977 -235
c95 -51 95 -234 1 -283 -42 -22 -183 -33 -420 -34 l-198 0 0 171 0 170 293 -3
c257 -3 296 -5 324 -21z"/>
<path d="M2010 6601 c0 -12 9 -21 25 -25 15 -4 30 -18 35 -32 6 -15 10 -249
10 -584 0 -335 -4 -569 -10 -584 -5 -14 -20 -28 -35 -32 -18 -4 -25 -13 -25
-30 l0 -24 215 0 215 0 0 24 c0 17 -7 26 -25 30 -15 4 -30 18 -35 32 -6 14
-10 122 -10 240 l0 214 174 0 174 0 140 -203 c162 -236 176 -259 159 -276 -6
-6 -17 -11 -24 -11 -7 0 -13 -11 -13 -25 l0 -25 245 0 245 0 0 25 c0 21 -5 25
-27 25 -39 0 -89 59 -258 300 l-143 204 61 16 c125 33 208 95 254 188 26 53
28 66 28 177 0 111 -2 125 -28 180 -34 73 -86 128 -151 162 -97 49 -141 53
-688 53 -492 0 -508 -1 -508 -19z m997 -231 c57 -25 83 -69 83 -140 0 -73 -26
-115 -86 -142 -42 -18 -74 -20 -340 -25 l-294 -6 0 166 0 167 298 0 c271 0
301 -2 339 -20z"/>
<path d="M5280 6602 c0 -10 12 -22 28 -28 21 -8 31 -20 35 -44 11 -53 8 -1126
-3 -1154 -5 -14 -20 -28 -35 -32 -18 -4 -25 -13 -25 -30 l0 -24 215 0 215 0 0
24 c0 17 -7 26 -25 30 -15 4 -30 18 -35 32 -6 14 -10 119 -10 233 l0 208 318
6 c339 7 397 14 491 61 63 33 134 113 162 184 32 81 32 233 0 314 -45 116
-155 202 -291 228 -31 6 -260 10 -546 10 -467 0 -494 -1 -494 -18z m977 -235
c95 -51 95 -234 1 -283 -42 -22 -183 -33 -420 -34 l-198 0 0 171 0 170 293 -3
c257 -3 296 -5 324 -21z"/>
<path d="M6790 6601 c0 -12 9 -21 25 -25 15 -4 30 -18 35 -32 6 -15 10 -249
10 -584 0 -335 -4 -569 -10 -584 -5 -14 -20 -28 -35 -32 -18 -4 -25 -13 -25
-30 l0 -24 438 0 c481 0 633 9 726 40 118 40 199 122 233 239 21 73 14 199
-14 263 -25 56 -87 118 -142 143 l-40 18 42 30 c54 40 74 62 100 117 29 61 30
191 3 270 -26 73 -101 149 -181 181 l-60 24 -552 3 c-541 3 -553 2 -553 -17z
m989 -224 c64 -23 97 -104 71 -181 -26 -81 -97 -96 -467 -96 l-233 0 0 145 0
145 298 -1 c203 0 308 -4 331 -12z m33 -531 c78 -38 109 -156 63 -235 -44 -74
-132 -90 -502 -91 l-223 0 0 176 0 175 313 -3 c280 -3 316 -5 349 -22z"/>
<path d="M8390 6601 c0 -12 9 -21 25 -25 15 -4 30 -18 35 -32 6 -15 10 -249
10 -584 0 -335 -4 -569 -10 -584 -5 -14 -20 -28 -35 -32 -18 -4 -25 -13 -25
-30 l0 -24 605 0 605 0 12 -25 c7 -16 19 -25 35 -25 l23 0 0 170 0 170 -23 0
c-15 0 -28 -9 -35 -24 -7 -16 -22 -25 -49 -29 -21 -4 -212 -7 -425 -7 l-388 0
0 499 c0 297 4 510 10 525 5 14 20 28 35 32 16 4 25 13 25 25 0 18 -11 19
-215 19 -204 0 -215 -1 -215 -19z"/>
<path d="M13100 6601 c0 -12 9 -21 25 -25 15 -4 30 -18 35 -32 11 -28 14
-1101 3 -1154 -4 -24 -14 -36 -35 -44 -19 -7 -28 -17 -28 -33 l0 -23 215 0
215 0 0 24 c0 17 -7 26 -25 30 -15 4 -30 18 -35 32 -6 14 -10 103 -10 198 l0
173 98 80 98 80 199 -243 c231 -284 238 -293 223 -311 -6 -7 -17 -13 -24 -13
-8 0 -14 -10 -14 -25 l0 -25 260 0 260 0 0 24 c0 19 -7 26 -31 31 -42 9 -100
73 -399 435 l-252 304 24 20 c12 10 122 99 243 196 121 98 248 201 283 229 35
28 72 51 83 51 12 0 19 7 19 20 0 20 -7 20 -275 20 -263 0 -275 -1 -275 -19 0
-12 9 -21 26 -25 18 -5 24 -12 22 -26 -2 -12 -116 -113 -283 -249 l-280 -229
-3 211 c-3 256 -1 275 39 290 17 7 29 19 29 29 0 17 -15 18 -215 18 -204 0
-215 -1 -215 -19z"/>
<path d="M4885 4620 c-4 -6 -110 -10 -286 -10 -232 0 -279 -2 -279 -14 0 -8 7
-16 15 -20 13 -5 15 -44 15 -272 0 -237 -2 -268 -17 -279 -41 -30 -4 -35 283
-35 183 0 284 -4 284 -10 0 -5 9 -10 20 -10 18 0 20 7 20 79 0 85 -10 103 -39
77 -15 -13 -48 -16 -209 -16 l-192 0 0 70 0 70 130 0 c80 0 130 -4 130 -10 0
-5 7 -10 15 -10 12 0 15 16 15 80 0 63 -3 80 -14 80 -8 0 -18 -4 -21 -10 -4
-6 -58 -10 -131 -10 l-124 0 0 63 0 62 195 -3 c116 -2 195 -7 195 -12 0 -6 7
-10 15 -10 12 0 15 16 15 80 0 63 -3 80 -14 80 -8 0 -18 -4 -21 -10z"/>
<path d="M11535 4620 c-4 -6 -110 -10 -286 -10 -232 0 -279 -2 -279 -14 0 -8
7 -16 15 -20 13 -5 15 -45 15 -275 0 -230 -2 -270 -15 -275 -8 -3 -15 -12 -15
-21 0 -13 36 -15 290 -15 187 0 290 -4 290 -10 0 -5 9 -10 20 -10 18 0 20 7
20 79 0 85 -10 103 -39 77 -15 -13 -48 -16 -209 -16 l-192 0 0 70 0 70 130 0
c80 0 130 -4 130 -10 0 -5 7 -10 15 -10 12 0 15 16 15 80 0 63 -3 80 -14 80
-8 0 -18 -4 -21 -10 -4 -6 -58 -10 -131 -10 l-124 0 0 63 0 62 195 -3 c116 -2
195 -7 195 -12 0 -6 7 -10 15 -10 12 0 15 16 15 80 0 63 -3 80 -14 80 -8 0
-18 -4 -21 -10z"/>
<path d="M1630 4596 c0 -8 5 -18 10 -21 6 -4 10 -107 10 -276 0 -173 -4 -269
-10 -269 -5 0 -10 -9 -10 -20 0 -19 7 -20 94 -20 97 0 126 11 93 35 -14 10
-17 31 -17 114 l0 101 74 0 74 0 53 -77 c89 -127 88 -126 70 -140 -33 -24 2
-34 114 -31 79 2 110 7 113 16 2 7 -5 16 -16 18 -21 6 -35 23 -120 144 l-52
75 25 7 c43 11 95 49 112 81 9 18 16 57 16 92 1 78 -22 121 -84 155 -43 25
-48 25 -296 28 -220 3 -253 1 -253 -12z m476 -130 c20 -29 17 -70 -7 -92 -18
-16 -40 -19 -160 -22 l-139 -4 0 74 0 73 146 -5 c129 -4 147 -7 160 -24z"/>
<path d="M8020 4596 c0 -8 5 -18 10 -21 6 -4 10 -107 10 -276 0 -173 -4 -269
-10 -269 -5 0 -10 -9 -10 -20 0 -19 7 -20 95 -20 79 0 95 3 95 15 0 9 -7 18
-15 21 -13 5 -15 35 -15 183 l0 176 103 -192 c56 -106 107 -193 113 -193 6 0
18 15 27 33 9 17 32 59 52 92 19 33 59 103 87 155 l53 95 3 -169 c2 -144 0
-171 -13 -178 -8 -5 -15 -16 -15 -23 0 -12 20 -15 105 -15 88 0 105 3 105 15
0 9 -7 18 -15 21 -13 5 -15 45 -15 274 0 229 2 269 15 274 8 3 15 12 15 21 0
13 -19 15 -125 15 -100 0 -125 -3 -125 -14 0 -8 7 -17 16 -20 13 -5 10 -16
-18 -68 -68 -125 -142 -257 -144 -255 -1 1 -39 73 -84 160 -66 128 -78 158
-66 163 9 3 16 12 16 20 0 11 -25 14 -125 14 -102 0 -125 -3 -125 -14z"/>
<path d="M2830 4510 c0 -6 -85 -10 -235 -10 -198 0 -235 -2 -235 -14 0 -8 5
-18 10 -21 6 -4 10 -88 10 -221 0 -136 -4 -214 -10 -214 -5 0 -10 -9 -10 -20
0 -19 7 -20 239 -20 149 0 242 -4 246 -10 3 -5 13 -10 21 -10 11 0 14 16 14
75 0 77 -7 89 -36 60 -12 -12 -46 -15 -172 -15 l-157 0 3 55 4 55 93 0 c52 0
97 -4 100 -10 3 -5 13 -10 21 -10 11 0 14 16 14 70 0 54 -3 70 -14 70 -8 0
-18 -4 -21 -10 -3 -6 -48 -10 -101 -10 l-94 0 0 50 0 50 149 0 c120 0 151 -3
161 -15 23 -28 30 -15 30 60 0 60 -3 75 -15 75 -8 0 -15 -4 -15 -10z"/>
<path d="M5540 4445 c0 -75 7 -88 30 -60 9 11 33 15 86 15 l74 0 0 -179 c0
-146 -3 -181 -15 -191 -8 -7 -15 -19 -15 -26 0 -11 21 -14 95 -14 74 0 95 3
95 14 0 7 -7 19 -15 26 -12 10 -15 45 -15 191 l0 179 74 0 c53 0 77 -4 86 -15
23 -28 30 -15 30 60 0 59 -3 75 -14 75 -8 0 -18 -4 -21 -10 -4 -6 -90 -10
-226 -10 -139 0 -219 4 -219 10 0 6 -7 10 -15 10 -12 0 -15 -15 -15 -75z"/>
<path d="M6630 4445 c0 -57 3 -75 14 -75 8 0 16 7 20 15 4 12 23 15 83 15 l78
0 -3 -182 c-2 -147 -6 -184 -17 -191 -8 -4 -15 -15 -15 -22 0 -12 19 -15 95
-15 88 0 95 1 95 20 0 11 -4 20 -10 20 -6 0 -10 68 -10 185 l0 185 75 0 c58 0
77 -4 81 -15 4 -8 12 -15 20 -15 11 0 14 18 14 75 0 59 -3 75 -14 75 -8 0 -18
-4 -21 -10 -4 -6 -90 -10 -225 -10 -135 0 -221 4 -225 10 -3 6 -13 10 -21 10
-11 0 -14 -16 -14 -75z"/>
<path d="M7665 4510 c-4 -6 -93 -10 -236 -10 -222 0 -229 -1 -229 -20 0 -11 5
-20 10 -20 6 0 10 -78 10 -215 0 -137 -4 -215 -10 -215 -5 0 -10 -9 -10 -20 0
-19 7 -20 239 -20 149 0 242 -4 246 -10 3 -5 13 -10 21 -10 11 0 14 16 14 75
0 57 -3 75 -14 75 -7 0 -19 -7 -26 -15 -10 -12 -42 -15 -171 -15 l-159 0 0 55
0 55 99 0 c56 0 103 -4 106 -10 3 -5 13 -10 21 -10 11 0 14 16 14 70 0 54 -3
70 -14 70 -8 0 -18 -4 -21 -10 -3 -6 -50 -10 -106 -10 l-99 0 0 50 0 50 155 0
c129 0 157 -3 161 -15 4 -8 12 -15 20 -15 11 0 14 18 14 75 0 59 -3 75 -14 75
-8 0 -18 -4 -21 -10z"/>
<path d="M10625 4510 c-4 -6 -95 -10 -241 -10 -203 0 -234 -2 -234 -15 0 -9 7
-18 15 -21 13 -5 15 -39 15 -216 0 -185 -2 -212 -17 -223 -40 -30 -4 -35 237
-35 148 0 241 -4 245 -10 16 -26 25 -3 25 65 0 75 -7 88 -30 60 -10 -12 -42
-15 -171 -15 l-159 0 0 55 0 55 99 0 c75 0 101 -4 111 -15 21 -26 30 -6 30 66
0 53 -3 69 -14 69 -8 0 -18 -4 -21 -10 -3 -6 -50 -10 -106 -10 l-99 0 0 50 0
50 155 0 c129 0 157 -3 161 -15 4 -8 12 -15 20 -15 11 0 14 18 14 75 0 59 -3
75 -14 75 -8 0 -18 -4 -21 -10z"/>
<path d="M5132 4494 c-24 -9 -61 -33 -83 -54 -37 -35 -39 -40 -39 -98 0 -51 4
-65 27 -93 38 -45 77 -58 208 -69 63 -5 120 -12 125 -15 21 -13 9 -43 -22 -56
-71 -30 -245 -2 -268 42 -16 29 -27 23 -50 -28 -33 -75 -36 -96 -14 -91 11 2
39 -5 64 -15 55 -24 234 -35 296 -18 160 43 186 219 42 281 -33 14 -91 26
-167 33 -105 11 -116 14 -119 33 -9 66 216 65 275 -1 12 -14 26 -25 30 -25 8
0 64 108 63 123 0 4 -11 7 -24 7 -13 0 -50 12 -82 26 -75 34 -196 42 -262 18z"/>
<path d="M12412 4494 c-24 -9 -61 -33 -83 -54 -37 -35 -39 -40 -39 -98 0 -51
4 -65 27 -93 38 -45 77 -58 208 -69 63 -5 120 -12 125 -15 21 -13 9 -43 -22
-56 -71 -30 -245 -2 -268 42 -16 29 -27 23 -50 -28 -33 -75 -36 -96 -14 -91
11 2 39 -5 64 -15 55 -24 234 -35 296 -18 48 13 108 56 123 89 17 37 13 101
-9 137 -30 48 -98 73 -237 88 -107 11 -118 14 -121 33 -9 66 216 65 275 -1 12
-14 26 -25 30 -25 8 1 64 109 63 123 0 4 -11 7 -24 7 -13 0 -50 12 -82 26 -75
34 -196 42 -262 18z"/>
<path d="M3100 4485 c0 -7 8 -18 18 -24 15 -9 6 -31 -87 -216 -57 -113 -113
-210 -123 -216 -10 -5 -18 -16 -18 -24 0 -12 19 -15 100 -15 81 0 100 3 100
15 0 7 -8 18 -17 24 -16 8 -16 12 2 50 l18 42 111 -3 111 -3 20 -38 c19 -36
19 -39 3 -48 -10 -5 -18 -17 -18 -24 0 -12 20 -15 104 -15 61 0 107 4 111 10
4 6 -6 23 -22 38 -31 29 -223 378 -223 405 0 9 5 19 10 22 6 3 10 13 10 21 0
11 -20 14 -105 14 -85 0 -105 -3 -105 -15z m138 -225 l33 -60 -66 0 c-36 0
-65 2 -65 5 0 10 54 115 60 115 3 0 20 -27 38 -60z"/>
<path d="M3570 4485 c0 -9 7 -18 15 -21 13 -5 15 -39 15 -219 0 -180 -2 -214
-15 -219 -8 -3 -15 -12 -15 -21 0 -13 30 -15 224 -15 139 0 227 -4 231 -10 3
-5 13 -10 21 -10 11 0 14 16 14 75 0 77 -7 89 -36 60 -12 -12 -44 -15 -155
-15 l-139 0 0 179 c0 172 1 181 21 195 37 26 12 36 -87 36 -78 0 -94 -3 -94
-15z"/>
<path d="M6210 4490 c0 -6 6 -19 12 -30 11 -18 0 -45 -91 -225 -57 -112 -110
-206 -117 -209 -8 -3 -14 -12 -14 -21 0 -12 16 -15 94 -15 101 0 127 12 88 38
l-21 14 20 39 19 39 108 0 108 0 22 -39 23 -40 -21 -11 c-11 -6 -20 -17 -20
-25 0 -12 20 -15 110 -15 92 0 110 2 110 15 0 9 -7 18 -15 21 -14 6 -216 367
-229 412 -5 13 -3 22 3 22 6 0 11 9 11 20 0 19 -7 20 -100 20 -61 0 -100 -4
-100 -10z m129 -227 l31 -63 -65 0 -65 0 32 65 c18 35 33 63 34 62 1 -1 16
-30 33 -64z"/>
<path d="M9050 4485 c0 -7 8 -18 18 -24 15 -9 7 -31 -86 -215 -59 -118 -111
-210 -122 -216 -11 -6 -20 -17 -20 -25 0 -12 19 -15 100 -15 81 0 100 3 100
15 0 7 -7 18 -16 23 -14 8 -14 13 1 50 l17 42 113 0 112 0 18 -41 c18 -38 18
-42 2 -50 -9 -6 -17 -17 -17 -24 0 -12 21 -15 110 -15 87 0 110 3 110 14 0 7
-10 20 -23 29 -12 8 -35 39 -50 68 -15 30 -49 95 -77 144 -101 182 -106 194
-92 215 23 37 15 40 -93 40 -85 0 -105 -3 -105 -15z m107 -283 c-32 -2 -61 -1
-64 1 -2 3 10 33 27 66 l31 62 33 -63 33 -63 -60 -3z"/>
<path d="M9520 4481 c0 -12 5 -21 10 -21 6 0 10 -78 10 -215 0 -137 -4 -215
-10 -215 -5 0 -10 -9 -10 -20 0 -19 7 -20 158 -20 193 0 264 11 317 47 107 75
130 272 43 378 -60 72 -88 80 -315 83 -200 3 -203 3 -203 -17z m364 -102 c64
-31 91 -143 53 -216 -25 -48 -68 -65 -172 -71 l-90 -4 0 157 0 157 90 -4 c50
-2 103 -11 119 -19z"/>
<path d="M11820 4485 c0 -7 8 -18 18 -24 15 -9 6 -31 -87 -216 -57 -113 -113
-210 -123 -216 -10 -5 -18 -16 -18 -24 0 -12 19 -15 100 -15 81 0 100 3 100
15 0 7 -8 18 -17 24 -16 8 -16 12 2 50 l18 42 111 -3 111 -3 20 -38 c19 -36
19 -39 3 -48 -10 -5 -18 -17 -18 -24 0 -12 20 -15 104 -15 61 0 107 4 111 10
4 6 -6 23 -22 38 -31 29 -223 378 -223 405 0 9 5 19 10 22 6 3 10 13 10 21 0
11 -20 14 -105 14 -85 0 -105 -3 -105 -15z m138 -225 l33 -60 -66 0 c-36 0
-65 2 -65 5 0 10 54 115 60 115 3 0 20 -27 38 -60z"/>
<path d="M12800 4490 c0 -5 21 -31 48 -57 26 -26 75 -85 110 -131 l62 -82 0
-94 c0 -74 -3 -95 -15 -100 -8 -3 -15 -12 -15 -21 0 -12 16 -15 95 -15 88 0
95 1 95 20 0 11 -4 20 -10 20 -6 0 -10 39 -10 97 l0 96 85 114 c47 63 97 119
110 125 14 6 25 17 25 25 0 10 -26 13 -115 13 -93 0 -115 -3 -115 -14 0 -8 5
-18 10 -21 18 -11 11 -30 -28 -83 l-39 -51 -37 50 c-46 62 -51 75 -32 82 9 4
16 13 16 22 0 13 -19 15 -120 15 -69 0 -120 -4 -120 -10z"/>
</g>
</svg>
